<?xml version="1.0" encoding="UTF-8" standalone="no"?>
<!-- Created with Inkscape (http://www.inkscape.org/) -->

<svg
   width="43.213497"
   height="43.182621"
   id="svg4197"
   version="1.1"
   inkscape:version="1.4.2 (ebf0e940, 2025-05-08)"
   sodipodi:docname="clear-day.svg"
   xmlns:inkscape="http://www.inkscape.org/namespaces/inkscape"
   xmlns:sodipodi="http://sodipodi.sourceforge.net/DTD/sodipodi-0.dtd"
   xmlns="http://www.w3.org/2000/svg"
   xmlns:svg="http://www.w3.org/2000/svg"
   xmlns:rdf="http://www.w3.org/1999/02/22-rdf-syntax-ns#"
   xmlns:cc="http://creativecommons.org/ns#"
   xmlns:dc="http://purl.org/dc/elements/1.1/">
  <defs
     id="defs4199">
    <clipPath
       clipPathUnits="userSpaceOnUse"
       id="clipPath16">
      <path
         inkscape:connector-curvature="0"
         d="M 0,1190.55 H 841.89 V 0 H 0 Z"
         id="path18" />
    </clipPath>
  </defs>
  <sodipodi:namedview
     id="base"
     pagecolor="#ffffff"
     bordercolor="#666666"
     borderopacity="1.0"
     inkscape:pageopacity="0.0"
     inkscape:pageshadow="2"
     inkscape:zoom="2.8440997"
     inkscape:cx="112.33783"
     inkscape:cy="11.954574"
     inkscape:document-units="px"
     inkscape:current-layer="layer1"
     showgrid="false"
     inkscape:window-width="1512"
     inkscape:window-height="945"
     inkscape:window-x="0"
     inkscape:window-y="37"
     inkscape:window-maximized="0"
     showguides="true"
     inkscape:guide-bbox="true"
     inkscape:showpageshadow="2"
     inkscape:pagecheckerboard="0"
     inkscape:deskcolor="#d1d1d1">
    <inkscape:grid
       type="xygrid"
       id="grid4008"
       empspacing="5"
       visible="true"
       enabled="true"
       snapvisiblegridlinesonly="true"
       originx="-94.591385"
       originy="-155.9073"
       spacingy="1"
       spacingx="1"
       units="px" />
  </sodipodi:namedview>
  <metadata
     id="metadata4202">
    <rdf:RDF>
      <cc:Work
         rdf:about="">
        <dc:format>image/svg+xml</dc:format>
        <dc:type
           rdf:resource="http://purl.org/dc/dcmitype/StillImage" />
      </cc:Work>
    </rdf:RDF>
  </metadata>
  <g
     inkscape:label="Layer 1"
     inkscape:groupmode="layer"
     id="layer1"
     transform="translate(-94.591386,-588.26948)">
    <path
       id="path22"
       style="fill:#357491;fill-opacity:1;fill-rule:nonzero;stroke:none"
       d="m 116.20213,619.87723 c -5.47875,0 -9.935,-4.4575 -9.935,-9.93625 0,-5.4775 4.45625,-9.935 9.935,-9.935 5.47875,0 9.935,4.4575 9.935,9.935 0,5.47875 -4.45625,9.93625 -9.935,9.93625 m 0,-21.275 c -6.2525,0 -11.33875,5.08625 -11.33875,11.33875 0,6.2525 5.08625,11.34 11.33875,11.34 6.25125,0 11.33875,-5.0875 11.33875,-11.34 0,-6.2525 -5.0875,-11.33875 -11.33875,-11.33875"
       inkscape:connector-curvature="0" />
    <path
       id="path26"
       style="fill:#357491;fill-opacity:1;fill-rule:nonzero;stroke:none"
       d="m 116.20213,595.27823 c 0.3875,0 0.70125,-0.31375 0.70125,-0.7025 v -5.605 c 0,-0.3875 -0.31375,-0.70125 -0.70125,-0.70125 -0.3875,0 -0.7025,0.31375 -0.7025,0.70125 v 5.605 c 0,0.38875 0.315,0.7025 0.7025,0.7025"
       inkscape:connector-curvature="0" />
    <path
       id="path30"
       style="fill:#357491;fill-opacity:1;fill-rule:nonzero;stroke:none"
       d="m 116.20213,624.44335 c -0.3875,0 -0.7025,0.31375 -0.7025,0.7025 v 5.605 c 0,0.3875 0.315,0.70125 0.7025,0.70125 0.3875,0 0.70125,-0.31375 0.70125,-0.70125 v -5.605 c 0,-0.38875 -0.31375,-0.7025 -0.70125,-0.7025"
       inkscape:connector-curvature="0" />
    <path
       id="path34"
       style="fill:#357491;fill-opacity:1;fill-rule:nonzero;stroke:none"
       d="m 123.87976,597.46273 c 0.115,0.0713 0.2425,0.105 0.36875,0.105 0.235,0 0.465,-0.1175 0.5975,-0.3325 l 2.95125,-4.76625 c 0.2025,-0.33 0.10125,-0.76125 -0.2275,-0.96625 -0.33,-0.20375 -0.7625,-0.1025 -0.96625,0.2275 l -2.95125,4.7675 c -0.20375,0.32875 -0.1025,0.76125 0.2275,0.965"
       inkscape:connector-curvature="0" />
    <path
       id="path38"
       style="fill:#357491;fill-opacity:1;fill-rule:nonzero;stroke:none"
       d="m 108.52513,622.25885 c -0.32875,-0.20375 -0.7625,-0.1025 -0.96625,0.2275 l -2.95125,4.76625 c -0.20375,0.33 -0.10125,0.76125 0.2275,0.96625 0.11625,0.0712 0.2425,0.105 0.36875,0.105 0.235,0 0.465,-0.1175 0.5975,-0.3325 l 2.95125,-4.7675 c 0.20375,-0.32875 0.10125,-0.76125 -0.2275,-0.965"
       inkscape:connector-curvature="0" />
    <path
       id="path42"
       style="fill:#357491;fill-opacity:1;fill-rule:nonzero;stroke:none"
       d="m 129.68238,603.3661 c 0.1125,0 0.225,-0.0262 0.33125,-0.0825 l 4.945,-2.64875 c 0.3425,-0.1825 0.47125,-0.6075 0.2875,-0.95 -0.1825,-0.34 -0.6075,-0.47 -0.95,-0.28625 l -4.945,2.6475 c -0.3425,0.1825 -0.47125,0.60875 -0.2875,0.95 0.12625,0.23625 0.36875,0.37 0.61875,0.37"
       inkscape:connector-curvature="0" />
    <path
       id="path46"
       style="fill:#357491;fill-opacity:1;fill-rule:nonzero;stroke:none"
       d="m 102.38126,616.4831 -4.9475,2.6475 c -0.34125,0.18375 -0.47,0.6075 -0.2875,0.95 0.1275,0.23625 0.36875,0.37125 0.62,0.37125 0.11125,0 0.22375,-0.0275 0.33,-0.0838 l 4.94625,-2.6475 c 0.3425,-0.18375 0.47125,-0.60875 0.28875,-0.95125 -0.18375,-0.34 -0.6075,-0.46875 -0.95,-0.28625"
       inkscape:connector-curvature="0" />
    <path
       id="path50"
       style="fill:#357491;fill-opacity:1;fill-rule:nonzero;stroke:none"
       d="m 137.10363,609.12047 h -0.002 l -5.61,0.0162 c -0.3875,10e-4 -0.70125,0.31625 -0.7,0.70375 0.001,0.38625 0.315,0.7 0.70125,0.7 h 0.002 l 5.61,-0.0162 c 0.3875,-10e-4 0.70125,-0.31625 0.7,-0.70375 -0.001,-0.3875 -0.315,-0.7 -0.70125,-0.7"
       inkscape:connector-curvature="0" />
    <path
       id="path54"
       style="fill:#357491;fill-opacity:1;fill-rule:nonzero;stroke:none"
       d="m 101.60489,609.9231 c -10e-4,-0.3875 -0.315,-0.7 -0.7025,-0.7 h -10e-4 l -5.61,0.0163 c -0.38875,10e-4 -0.70125,0.31625 -0.7,0.70375 10e-4,0.3875 0.315,0.7 0.70125,0.7 h 0.002 l 5.61,-0.0163 c 0.3875,-10e-4 0.7,-0.31625 0.7,-0.70375"
       inkscape:connector-curvature="0" />
    <path
       id="path58"
       style="fill:#357491;fill-opacity:1;fill-rule:nonzero;stroke:none"
       d="m 134.89051,619.2706 -4.925,-2.69125 c -0.34,-0.18625 -0.76625,-0.0613 -0.9525,0.27875 -0.185,0.34 -0.06,0.7675 0.28,0.9525 l 4.92375,2.69 c 0.1075,0.06 0.2225,0.0875 0.33625,0.0875 0.2475,0 0.49,-0.1325 0.61625,-0.365 0.18625,-0.34125 0.06,-0.7675 -0.27875,-0.9525"
       inkscape:connector-curvature="0" />
    <path
       id="path62"
       style="fill:#357491;fill-opacity:1;fill-rule:nonzero;stroke:none"
       d="m 103.11439,601.90297 -4.92375,-2.69125 c -0.34,-0.18625 -0.7675,-0.0613 -0.9525,0.27875 -0.18625,0.34 -0.0613,0.7675 0.27875,0.9525 l 4.92375,2.69125 c 0.1075,0.0588 0.2225,0.0863 0.33625,0.0863 0.24875,0 0.49,-0.1325 0.6175,-0.365 0.185,-0.34 0.06,-0.7675 -0.28,-0.9525"
       inkscape:connector-curvature="0" />
    <path
       id="path66"
       style="fill:#357491;fill-opacity:1;fill-rule:nonzero;stroke:none"
       d="m 124.90938,622.45848 c -0.205,-0.3275 -0.6375,-0.42875 -0.96625,-0.2225 -0.32875,0.205 -0.42875,0.63875 -0.2225,0.96625 l 2.97375,4.75875 c 0.1325,0.2125 0.36125,0.32875 0.595,0.32875 0.1275,0 0.255,-0.0337 0.37125,-0.10625 0.32875,-0.205 0.42875,-0.63875 0.22375,-0.9675 z"
       inkscape:connector-curvature="0" />
    <path
       id="path70"
       style="fill:#357491;fill-opacity:1;fill-rule:nonzero;stroke:none"
       d="m 107.49726,597.25648 c 0.1325,0.2125 0.3625,0.33 0.595,0.33 0.1275,0 0.25625,-0.035 0.37125,-0.10625 0.32875,-0.20625 0.42875,-0.64 0.22375,-0.9675 l -2.975,-4.75875 c -0.205,-0.3275 -0.6375,-0.42875 -0.9675,-0.2225 -0.32875,0.205 -0.4275,0.63875 -0.2225,0.96625 z"
       inkscape:connector-curvature="0" />
  </g>
</svg>
