<?xml version="1.0" encoding="UTF-8" standalone="no"?>
<!-- Created with Inkscape (http://www.inkscape.org/) -->

<svg
   width="54.073849"
   height="35.269714"
   id="svg4197"
   version="1.1"
   inkscape:version="1.4.2 (ebf0e940, 2025-05-08)"
   sodipodi:docname="partly-cloudy-night.svg"
   xmlns:inkscape="http://www.inkscape.org/namespaces/inkscape"
   xmlns:sodipodi="http://sodipodi.sourceforge.net/DTD/sodipodi-0.dtd"
   xmlns="http://www.w3.org/2000/svg"
   xmlns:svg="http://www.w3.org/2000/svg"
   xmlns:rdf="http://www.w3.org/1999/02/22-rdf-syntax-ns#"
   xmlns:cc="http://creativecommons.org/ns#"
   xmlns:dc="http://purl.org/dc/elements/1.1/">
  <defs
     id="defs4199">
    <clipPath
       clipPathUnits="userSpaceOnUse"
       id="clipPath16">
      <path
         inkscape:connector-curvature="0"
         d="M 0,1190.55 H 841.89 V 0 H 0 Z"
         id="path18" />
    </clipPath>
  </defs>
  <sodipodi:namedview
     id="base"
     pagecolor="#ffffff"
     bordercolor="#666666"
     borderopacity="1.0"
     inkscape:pageopacity="0.0"
     inkscape:pageshadow="2"
     inkscape:zoom="1.8221719"
     inkscape:cx="181.37696"
     inkscape:cy="-92.197668"
     inkscape:document-units="px"
     inkscape:current-layer="layer1"
     showgrid="false"
     inkscape:window-width="1512"
     inkscape:window-height="945"
     inkscape:window-x="0"
     inkscape:window-y="37"
     inkscape:window-maximized="0"
     showguides="true"
     inkscape:guide-bbox="true"
     inkscape:showpageshadow="2"
     inkscape:pagecheckerboard="0"
     inkscape:deskcolor="#d1d1d1">
    <inkscape:grid
       type="xygrid"
       id="grid4008"
       empspacing="5"
       visible="true"
       enabled="true"
       snapvisiblegridlinesonly="true"
       originx="-96.635632"
       originy="-418.19919"
       spacingy="1"
       spacingx="1"
       units="px" />
  </sodipodi:namedview>
  <metadata
     id="metadata4202">
    <rdf:RDF>
      <cc:Work
         rdf:about="">
        <dc:format>image/svg+xml</dc:format>
        <dc:type
           rdf:resource="http://purl.org/dc/dcmitype/StillImage" />
      </cc:Work>
    </rdf:RDF>
  </metadata>
  <g
     inkscape:label="Layer 1"
     inkscape:groupmode="layer"
     id="layer1"
     transform="translate(-96.635632,-850.56137)">
    <path
       inkscape:connector-curvature="0"
       d="m 119.33543,884.50348 h 22.82625 c 0.1525,0 0.31,0 0.45875,0.0162 v -0.0162 c 3.7275,0 6.76125,-3.0325 6.76125,-6.76125 0,-3.72875 -3.03375,-6.76125 -6.76125,-6.76125 -0.53,0 -1.0775,0.0688 -1.63125,0.205 -0.18,0.045 -0.3725,0.0125 -0.5275,-0.0912 -0.155,-0.10375 -0.26,-0.265 -0.28875,-0.44875 -0.755,-4.81375 -4.8375,-8.305 -9.7075,-8.305 -5.42625,0 -9.84,4.41375 -9.84,9.84 0,0.2675 0.0188,0.53 0.04,0.79125 0.0163,0.1975 -0.0562,0.39125 -0.1975,0.52875 -0.1425,0.14 -0.33875,0.20625 -0.53375,0.185 -0.1975,-0.02 -0.39625,-0.0337 -0.59875,-0.0337 -2.99125,0 -5.425,2.43375 -5.425,5.425 0,2.9925 2.43375,5.42625 5.425,5.42625 m -0.0362,-12.17875 c -10e-4,-0.0475 -10e-4,-0.0962 -10e-4,-0.14375 0,-6.15875 5.01,-11.1675 11.1675,-11.1675 5.295,0 9.77,3.63625 10.89125,8.74375 0.42625,-0.07 0.84875,-0.10375 1.26375,-0.10375 4.46,0 8.08875,3.62875 8.08875,8.08875 0,4.46 -3.62875,8.08875 -8.0925,8.08875 h -6.03375 -17.2475 c -3.72375,0 -6.7525,-3.02875 -6.7525,-6.75375 0,-3.71 3.00875,-6.7325 6.71625,-6.7525"
       style="fill:#357491;fill-opacity:1;fill-rule:nonzero;stroke:none"
       id="path3137" />
    <path
       sodipodi:nodetypes="cscccscccc"
       inkscape:connector-curvature="0"
       id="path3171"
       d="m 109.0484,882.31571 c -4.1556,-0.97666 -7.75764,-3.53708 -10.00548,-7.16614 -4.67637,-7.54979 -2.32966,-17.49822 5.21975,-22.17467 7.54977,-4.67636 17.47444,-2.35198 22.15082,5.19771 0.67104,1.08337 -0.84778,1.57586 -1.31275,0.8252 -4.23083,-6.83046 -13.20474,-8.91729 -20.03521,-4.68642 -6.83049,4.23083 -8.91873,13.15862 -4.68763,19.98917 2.02953,3.27657 5.26389,5.62276 9.01588,6.50456 0.93717,0.22026 0.76253,1.77094 -0.34575,1.51048 z"
       style="color:#000000;font-style:normal;font-variant:normal;font-weight:normal;font-stretch:normal;font-size:medium;line-height:normal;font-family:Sans;-inkscape-font-specification:Sans;text-indent:0;text-align:start;text-decoration:none;text-decoration-line:none;letter-spacing:normal;word-spacing:normal;text-transform:none;writing-mode:lr-tb;direction:ltr;baseline-shift:baseline;text-anchor:start;display:inline;overflow:visible;visibility:visible;fill:#357491;fill-opacity:1;stroke:none;stroke-width:1.5;marker:none;enable-background:accumulate" />
  </g>
</svg>
