<?xml version="1.0" encoding="UTF-8" standalone="no"?>
<!-- Created with Inkscape (http://www.inkscape.org/) -->

<svg
   width="49.406319"
   height="37.073872"
   id="svg4197"
   version="1.1"
   inkscape:version="1.4.2 (ebf0e940, 2025-05-08)"
   sodipodi:docname="partly-cloudy-day.svg"
   xmlns:inkscape="http://www.inkscape.org/namespaces/inkscape"
   xmlns:sodipodi="http://sodipodi.sourceforge.net/DTD/sodipodi-0.dtd"
   xmlns="http://www.w3.org/2000/svg"
   xmlns:svg="http://www.w3.org/2000/svg"
   xmlns:rdf="http://www.w3.org/1999/02/22-rdf-syntax-ns#"
   xmlns:cc="http://creativecommons.org/ns#"
   xmlns:dc="http://purl.org/dc/elements/1.1/">
  <defs
     id="defs4199">
    <clipPath
       clipPathUnits="userSpaceOnUse"
       id="clipPath16">
      <path
         inkscape:connector-curvature="0"
         d="M 0,1190.55 H 841.89 V 0 H 0 Z"
         id="path18" />
    </clipPath>
  </defs>
  <sodipodi:namedview
     id="base"
     pagecolor="#ffffff"
     bordercolor="#666666"
     borderopacity="1.0"
     inkscape:pageopacity="0.0"
     inkscape:pageshadow="2"
     inkscape:zoom="1.8221719"
     inkscape:cx="113.3263"
     inkscape:cy="131.71095"
     inkscape:document-units="px"
     inkscape:current-layer="layer1"
     showgrid="false"
     inkscape:window-width="1512"
     inkscape:window-height="945"
     inkscape:window-x="0"
     inkscape:window-y="37"
     inkscape:window-maximized="0"
     showguides="true"
     inkscape:guide-bbox="true"
     inkscape:showpageshadow="2"
     inkscape:pagecheckerboard="0"
     inkscape:deskcolor="#d1d1d1">
    <inkscape:grid
       type="xygrid"
       id="grid4008"
       empspacing="5"
       visible="true"
       enabled="true"
       snapvisiblegridlinesonly="true"
       originx="-184.89894"
       originy="-158.9628"
       spacingy="1"
       spacingx="1"
       units="px" />
  </sodipodi:namedview>
  <metadata
     id="metadata4202">
    <rdf:RDF>
      <cc:Work
         rdf:about="">
        <dc:format>image/svg+xml</dc:format>
        <dc:type
           rdf:resource="http://purl.org/dc/dcmitype/StillImage" />
      </cc:Work>
    </rdf:RDF>
  </metadata>
  <g
     inkscape:label="Layer 1"
     inkscape:groupmode="layer"
     id="layer1"
     transform="translate(-184.89894,-591.32498)">
    <path
       id="path74"
       style="fill:#357491;fill-opacity:1;fill-rule:nonzero;stroke:none"
       d="m 205.83256,627.1936 20.71625,-10e-4 c 0.1375,0 0.28125,0 0.415,0.015 v -0.0137 c 3.38375,0 6.13625,-2.7525 6.13625,-6.13625 0,-3.38375 -2.7525,-6.13625 -6.13625,-6.13625 -0.4775,0 -0.975,0.0613 -1.48,0.18625 -0.16375,0.04 -0.3375,0.0112 -0.47875,-0.0838 -0.14,-0.0937 -0.235,-0.24125 -0.26125,-0.40875 -0.685,-4.36625 -4.39125,-7.53625 -8.81,-7.53625 -4.92375,0 -8.93,4.00625 -8.93,8.93125 0,0.24125 0.0175,0.48 0.0362,0.7175 0.015,0.17875 -0.05,0.355 -0.17875,0.48 -0.12875,0.125 -0.30625,0.185 -0.485,0.16875 -0.17875,-0.0188 -0.35875,-0.0313 -0.54375,-0.0313 -2.71375,0 -4.9225,2.21 -4.9225,4.92375 0,2.715 2.20875,4.925 4.9225,4.925 m -0.0325,-11.05375 c 0,-0.0425 -10e-4,-0.0863 -10e-4,-0.13 0,-5.58875 4.54625,-10.13625 10.135,-10.13625 4.805,0 8.86625,3.3025 9.88375,7.93625 0.38875,-0.0637 0.77125,-0.0937 1.14625,-0.0937 4.04875,0 7.34125,3.2925 7.34125,7.34125 0,4.0475 -3.2925,7.34125 -7.34125,7.34125 h -0.006 c -0.09,-0.001 -2.40625,-0.001 -5.4725,-0.001 l -15.6525,0.001 c -3.37875,0 -6.1275,-2.75 -6.1275,-6.13 0,-3.36875 2.73,-6.11 6.095,-6.12875"
       inkscape:connector-curvature="0" />
    <path
       id="path78"
       style="fill:#357491;fill-opacity:1;fill-rule:nonzero;stroke:none"
       d="m 193.83856,610.0561 c 0,-5.3675 4.3675,-9.73375 9.73375,-9.73375 3.2825,0 6.12375,1.405 7.9325,4.14625 0.1825,0.27875 0.10625,0.6525 -0.17125,0.835 -0.27875,0.185 -0.6525,0.1075 -0.835,-0.17 -1.585,-2.4025 -4.05125,-3.60625 -6.92625,-3.60625 -4.7025,0 -8.52875,3.825 -8.52875,8.52875 0,2.91125 1.4625,5.59375 3.91125,7.1725 0.27875,0.18125 0.36,0.55375 0.17875,0.8325 -0.11375,0.18 -0.3075,0.27625 -0.505,0.27625 -0.1125,0 -0.22625,-0.03 -0.3275,-0.0962 -2.79375,-1.8025 -4.4625,-4.8625 -4.4625,-8.185"
       inkscape:connector-curvature="0" />
    <path
       id="path82"
       style="fill:#357491;fill-opacity:1;fill-rule:nonzero;stroke:none"
       d="m 203.44419,597.34123 c -0.33375,0 -0.6025,-0.26875 -0.6025,-0.60125 v -4.81375 c 0,-0.3325 0.26875,-0.60125 0.6025,-0.60125 0.3325,0 0.6025,0.26875 0.6025,0.60125 v 4.81375 c 0,0.3325 -0.27,0.60125 -0.6025,0.60125"
       inkscape:connector-curvature="0" />
    <path
       id="path86"
       style="fill:#357491;fill-opacity:1;fill-rule:nonzero;stroke:none"
       d="m 196.85307,599.21748 c -0.0987,0.0613 -0.2075,0.09 -0.31625,0.09 -0.20125,0 -0.39875,-0.10125 -0.51375,-0.285 l -2.5325,-4.0925 c -0.17375,-0.2825 -0.0875,-0.65375 0.195,-0.83 0.28375,-0.17375 0.65375,-0.0875 0.83,0.19625 l 2.5325,4.09125 c 0.17625,0.28375 0.0887,0.65375 -0.195,0.83"
       inkscape:connector-curvature="0" />
    <path
       id="path90"
       style="fill:#357491;fill-opacity:1;fill-rule:nonzero;stroke:none"
       d="m 191.87132,604.28585 c -0.095,0 -0.1925,-0.0238 -0.28375,-0.0713 l -4.245,-2.27375 c -0.29375,-0.15625 -0.405,-0.52125 -0.2475,-0.815 0.15625,-0.29375 0.52125,-0.405 0.81625,-0.2475 l 4.245,2.27375 c 0.29375,0.1575 0.405,0.5225 0.24625,0.815 -0.1075,0.20375 -0.31625,0.31875 -0.53125,0.31875"
       inkscape:connector-curvature="0" />
    <path
       id="path94"
       style="fill:#357491;fill-opacity:1;fill-rule:nonzero;stroke:none"
       d="m 185.50169,609.22598 h 0.002 l 4.815,0.0138 c 0.33375,0 0.6025,0.27125 0.60125,0.60375 -0.001,0.3325 -0.27,0.60125 -0.6025,0.60125 h -0.001 l -4.815,-0.0137 c -0.33375,-10e-4 -0.6025,-0.2725 -0.6025,-0.60625 10e-4,-0.33125 0.27,-0.59875 0.6025,-0.59875"
       inkscape:connector-curvature="0" />
    <path
       id="path98"
       style="fill:#357491;fill-opacity:1;fill-rule:nonzero;stroke:none"
       d="m 187.40119,617.93935 4.2275,-2.31125 c 0.2925,-0.15875 0.65875,-0.0525 0.8175,0.24125 0.16,0.29125 0.0525,0.6575 -0.24,0.81625 l -4.2275,2.31125 c -0.0912,0.05 -0.19,0.0725 -0.28875,0.0725 -0.21125,0 -0.41875,-0.1125 -0.52875,-0.31375 -0.15875,-0.29125 -0.0512,-0.6575 0.24,-0.81625"
       inkscape:connector-curvature="0" />
    <path
       id="path102"
       style="fill:#357491;fill-opacity:1;fill-rule:nonzero;stroke:none"
       d="m 219.48544,601.7761 -4.2275,2.31 c -0.0925,0.0513 -0.19125,0.0738 -0.28875,0.0738 -0.2125,0 -0.42,-0.11375 -0.52875,-0.31375 -0.16,-0.29125 -0.0525,-0.6575 0.24,-0.81625 l 4.2275,-2.31125 c 0.2925,-0.16 0.6575,-0.0525 0.8175,0.24 0.15875,0.29125 0.0525,0.6575 -0.24,0.8175"
       inkscape:connector-curvature="0" />
    <path
       id="path106"
       style="fill:#357491;fill-opacity:1;fill-rule:nonzero;stroke:none"
       d="m 195.96919,620.67622 c 0.1775,-0.2825 0.5475,-0.36875 0.83125,-0.19 0.28125,0.175 0.36625,0.5475 0.19,0.82875 l -2.55375,4.085 c -0.11375,0.1825 -0.31125,0.28375 -0.51125,0.28375 -0.11,0 -0.22,-0.0313 -0.31875,-0.0913 -0.2825,-0.1775 -0.36875,-0.55 -0.19125,-0.83125 l 2.55375,-4.085 z"
       inkscape:connector-curvature="0" />
    <path
       id="path110"
       style="fill:#357491;fill-opacity:1;fill-rule:nonzero;stroke:none"
       d="m 210.91731,599.04048 c -0.11375,0.1825 -0.31125,0.28375 -0.51125,0.28375 -0.10875,0 -0.21875,-0.03 -0.31875,-0.0925 -0.2825,-0.17625 -0.3675,-0.5475 -0.19125,-0.83125 l 2.555,-4.08375 c 0.17625,-0.2825 0.5475,-0.36875 0.83,-0.19125 0.28125,0.17625 0.3675,0.5475 0.19,0.83 z"
       inkscape:connector-curvature="0" />
  </g>
</svg>
