<?xml version="1.0" encoding="UTF-8" standalone="no"?>
<!-- Created with Inkscape (http://www.inkscape.org/) -->

<svg
   width="47.335651"
   height="41.987"
   id="svg4197"
   version="1.1"
   inkscape:version="1.4.2 (ebf0e940, 2025-05-08)"
   sodipodi:docname="rain.svg"
   xmlns:inkscape="http://www.inkscape.org/namespaces/inkscape"
   xmlns:sodipodi="http://sodipodi.sourceforge.net/DTD/sodipodi-0.dtd"
   xmlns="http://www.w3.org/2000/svg"
   xmlns:svg="http://www.w3.org/2000/svg"
   xmlns:rdf="http://www.w3.org/1999/02/22-rdf-syntax-ns#"
   xmlns:cc="http://creativecommons.org/ns#"
   xmlns:dc="http://purl.org/dc/elements/1.1/">
  <defs
     id="defs4199">
    <clipPath
       clipPathUnits="userSpaceOnUse"
       id="clipPath16">
      <path
         inkscape:connector-curvature="0"
         d="M 0,1190.55 H 841.89 V 0 H 0 Z"
         id="path18" />
    </clipPath>
  </defs>
  <sodipodi:namedview
     id="base"
     pagecolor="#ffffff"
     bordercolor="#666666"
     borderopacity="1.0"
     inkscape:pageopacity="0.0"
     inkscape:pageshadow="2"
     inkscape:zoom="1.8221719"
     inkscape:cx="-136.37572"
     inkscape:cy="56.525951"
     inkscape:document-units="px"
     inkscape:current-layer="layer1"
     showgrid="false"
     inkscape:window-width="1512"
     inkscape:window-height="945"
     inkscape:window-x="0"
     inkscape:window-y="37"
     inkscape:window-maximized="0"
     showguides="true"
     inkscape:guide-bbox="true"
     inkscape:showpageshadow="2"
     inkscape:pagecheckerboard="0"
     inkscape:deskcolor="#d1d1d1">
    <inkscape:grid
       type="xygrid"
       id="grid4008"
       empspacing="5"
       visible="true"
       enabled="true"
       snapvisiblegridlinesonly="true"
       originx="-473.11013"
       originy="-246.02642"
       spacingy="1"
       spacingx="1"
       units="px" />
  </sodipodi:namedview>
  <metadata
     id="metadata4202">
    <rdf:RDF>
      <cc:Work
         rdf:about="">
        <dc:format>image/svg+xml</dc:format>
        <dc:type
           rdf:resource="http://purl.org/dc/dcmitype/StillImage" />
      </cc:Work>
    </rdf:RDF>
  </metadata>
  <g
     inkscape:label="Layer 1"
     inkscape:groupmode="layer"
     id="layer1"
     transform="translate(-473.11013,-678.3886)">
    <path
       id="path218"
       style="fill:#357491;fill-opacity:1;fill-rule:nonzero;stroke:none"
       d="m 489.24168,706.20173 h 22.7025 c 0.15125,0 0.30875,0 0.45625,0.0163 v -0.0163 c 3.7075,0 6.725,-3.01625 6.725,-6.72375 0,-3.70875 -3.0175,-6.725 -6.725,-6.725 -0.52625,0 -1.0725,0.0687 -1.6225,0.20375 -0.18,0.045 -0.36875,0.0125 -0.52375,-0.09 -0.155,-0.1025 -0.2575,-0.265 -0.2875,-0.4475 -0.75125,-4.78625 -4.8125,-8.26 -9.655,-8.26 -5.39625,0 -9.7875,4.39 -9.7875,9.7875 0,0.265 0.02,0.5275 0.0413,0.7875 0.015,0.195 -0.0575,0.38875 -0.1975,0.52625 -0.14,0.1375 -0.3375,0.20375 -0.53,0.18375 -0.19625,-0.0213 -0.395,-0.0337 -0.59625,-0.0337 -2.975,0 -5.39625,2.42 -5.39625,5.395 0,2.975 2.42125,5.39625 5.39625,5.39625 m -0.0362,-12.1125 c 0,-0.0475 -0.001,-0.095 -0.001,-0.1425 0,-6.125 4.9825,-11.1075 11.1075,-11.1075 5.26625,0 9.71625,3.6175 10.8325,8.69625 0.42375,-0.0687 0.84375,-0.10375 1.25625,-0.10375 4.43625,0 8.045,3.60875 8.045,8.04625 0,4.435 -3.60875,8.045 -8.04875,8.045 h -6.00125 -17.15375 c -3.7025,0 -6.71625,-3.01375 -6.71625,-6.7175 0,-3.69125 2.9925,-6.695 6.68,-6.71625"
       inkscape:connector-curvature="0" />
    <path
       id="path222"
       style="fill:#357491;fill-opacity:1;fill-rule:nonzero;stroke:none"
       d="m 481.15518,686.98235 c 0.4125,0 0.83375,0.035 1.25625,0.10375 1.11625,-5.07875 5.56625,-8.6975 10.8325,-8.6975 2.2925,0 4.49375,0.69375 6.365,2.005 0.29875,0.21 0.37125,0.6225 0.1625,0.92 -0.21125,0.29875 -0.62125,0.37125 -0.92125,0.1625 -1.6475,-1.15625 -3.58625,-1.76625 -5.60625,-1.76625 -4.8425,0 -8.90375,3.47375 -9.655,8.26 -0.03,0.18375 -0.13375,0.345 -0.2875,0.4475 -0.1525,0.1025 -0.3425,0.135 -0.525,0.0913 -0.54875,-0.1375 -1.095,-0.205 -1.62125,-0.205 -3.7075,0 -6.725,3.01625 -6.725,6.725 0,3.4575 2.59,6.33375 6.025,6.6875 0.36375,0.0387 0.6275,0.3625 0.59,0.725 -0.035,0.34 -0.3225,0.5925 -0.65625,0.5925 -0.0225,0 -0.0463,-10e-4 -0.0688,-0.002 -4.11,-0.425 -7.21,-3.865 -7.21,-8.0025 0,-4.4375 3.60875,-8.04625 8.045,-8.04625"
       inkscape:connector-curvature="0" />
    <path
       id="path298"
       style="fill:#357491;fill-opacity:1;fill-rule:nonzero;stroke:none"
       d="m 492.48455,710.52185 c -0.31625,-0.15625 -0.70125,-0.0288 -0.85875,0.28625 l -4.32125,8.64 c -0.15875,0.3175 -0.0288,0.70125 0.2875,0.86 0.0913,0.045 0.18875,0.0675 0.28625,0.0675 0.235,0 0.46125,-0.13 0.57375,-0.35375 l 4.31875,-8.64 c 0.15875,-0.31625 0.0313,-0.70125 -0.28625,-0.86"
       inkscape:connector-curvature="0" />
    <path
       id="path302"
       style="fill:#357491;fill-opacity:1;fill-rule:nonzero;stroke:none"
       d="m 499.69043,710.52185 c -0.31625,-0.15625 -0.7025,-0.0288 -0.86,0.28625 l -4.32,8.64 c -0.15875,0.3175 -0.03,0.70125 0.28625,0.86 0.0925,0.045 0.19,0.0675 0.285,0.0675 0.2375,0 0.4625,-0.13 0.575,-0.35375 l 4.32,-8.64 c 0.15875,-0.31625 0.03,-0.70125 -0.28625,-0.86"
       inkscape:connector-curvature="0" />
    <path
       id="path306"
       style="fill:#357491;fill-opacity:1;fill-rule:nonzero;stroke:none"
       d="m 506.89381,710.52185 c -0.31625,-0.15625 -0.70125,-0.0288 -0.86,0.28625 l -4.32,8.64 c -0.1575,0.3175 -0.03,0.70125 0.2875,0.86 0.0913,0.045 0.18875,0.0675 0.28625,0.0675 0.235,0 0.4625,-0.13 0.57375,-0.35375 l 4.31875,-8.64 c 0.15875,-0.31625 0.0313,-0.70125 -0.28625,-0.86"
       inkscape:connector-curvature="0" />
  </g>
</svg>
