<?xml version="1.0" encoding="UTF-8" standalone="no"?>
<!-- Created with Inkscape (http://www.inkscape.org/) -->

<svg
   width="46.215801"
   height="46.30431"
   id="svg4197"
   version="1.1"
   inkscape:version="1.4.2 (ebf0e940, 2025-05-08)"
   sodipodi:docname="snow.svg"
   xmlns:inkscape="http://www.inkscape.org/namespaces/inkscape"
   xmlns:sodipodi="http://sodipodi.sourceforge.net/DTD/sodipodi-0.dtd"
   xmlns="http://www.w3.org/2000/svg"
   xmlns:svg="http://www.w3.org/2000/svg"
   xmlns:rdf="http://www.w3.org/1999/02/22-rdf-syntax-ns#"
   xmlns:cc="http://creativecommons.org/ns#"
   xmlns:dc="http://purl.org/dc/elements/1.1/">
  <defs
     id="defs4199">
    <clipPath
       clipPathUnits="userSpaceOnUse"
       id="clipPath16">
      <path
         inkscape:connector-curvature="0"
         d="M 0,1190.55 H 841.89 V 0 H 0 Z"
         id="path18" />
    </clipPath>
  </defs>
  <sodipodi:namedview
     id="base"
     pagecolor="#ffffff"
     bordercolor="#666666"
     borderopacity="1.0"
     inkscape:pageopacity="0.0"
     inkscape:pageshadow="2"
     inkscape:zoom="1.8221719"
     inkscape:cx="-166.01068"
     inkscape:cy="-112.50311"
     inkscape:document-units="px"
     inkscape:current-layer="layer1"
     showgrid="false"
     inkscape:window-width="1512"
     inkscape:window-height="945"
     inkscape:window-x="0"
     inkscape:window-y="37"
     inkscape:window-maximized="0"
     showguides="true"
     inkscape:guide-bbox="true"
     inkscape:showpageshadow="2"
     inkscape:pagecheckerboard="0"
     inkscape:deskcolor="#d1d1d1">
    <inkscape:grid
       type="xygrid"
       id="grid4008"
       empspacing="5"
       visible="true"
       enabled="true"
       snapvisiblegridlinesonly="true"
       originx="-476.12311"
       originy="-419.97867"
       spacingy="1"
       spacingx="1"
       units="px" />
  </sodipodi:namedview>
  <metadata
     id="metadata4202">
    <rdf:RDF>
      <cc:Work
         rdf:about="">
        <dc:format>image/svg+xml</dc:format>
        <dc:type
           rdf:resource="http://purl.org/dc/dcmitype/StillImage" />
      </cc:Work>
    </rdf:RDF>
  </metadata>
  <g
     inkscape:label="Layer 1"
     inkscape:groupmode="layer"
     id="layer1"
     transform="translate(-476.12311,-852.34085)">
    <path
       id="path506"
       style="fill:#357491;fill-opacity:1;fill-rule:nonzero;stroke:none"
       d="m 491.87356,879.49548 h 22.165 c 0.1475,0 0.30125,0 0.445,0.015 v -0.015 c 3.62,0 6.56625,-2.945 6.56625,-6.565 0,-3.62125 -2.94625,-6.56625 -6.56625,-6.56625 -0.51375,0 -1.0475,0.0675 -1.58375,0.2 -0.175,0.0437 -0.36125,0.0113 -0.5125,-0.0888 -0.15,-0.1 -0.2525,-0.25875 -0.28,-0.43625 -0.7325,-4.67375 -4.69875,-8.065 -9.42625,-8.065 -5.26875,0 -9.55625,4.28625 -9.55625,9.55625 0,0.25875 0.02,0.515 0.0413,0.7675 0.0137,0.1925 -0.0563,0.38125 -0.19375,0.515 -0.13625,0.13375 -0.32875,0.19875 -0.5175,0.17875 -0.19125,-0.02 -0.385,-0.0325 -0.58125,-0.0325 -2.905,0 -5.26875,2.36375 -5.26875,5.2675 0,2.905 2.36375,5.26875 5.26875,5.26875 m -0.0362,-11.825 c 0,-0.0475 -10e-4,-0.0937 -10e-4,-0.14 0,-5.98 4.86625,-10.845 10.845,-10.845 5.14125,0 9.4875,3.53125 10.57625,8.49125 0.4125,-0.0675 0.82375,-0.1025 1.22625,-0.1025 4.33125,0 7.855,3.525 7.855,7.85625 0,4.33125 -3.52375,7.855 -7.85875,7.855 h -5.85875 -16.7475 c -3.61625,0 -6.5575,-2.9425 -6.5575,-6.55875 0,-3.60375 2.92125,-6.5375 6.52125,-6.55625"
       inkscape:connector-curvature="0" />
    <path
       id="path510"
       style="fill:#357491;fill-opacity:1;fill-rule:nonzero;stroke:none"
       d="m 483.97806,860.73085 c 0.40375,0 0.81375,0.0337 1.22625,0.10125 1.09,-4.95875 5.435,-8.49125 10.57625,-8.49125 2.23875,0 4.3875,0.6775 6.215,1.9575 0.29,0.205 0.36125,0.60625 0.1575,0.8975 -0.205,0.2925 -0.60625,0.3625 -0.89875,0.15875 -1.60875,-1.12875 -3.50125,-1.725 -5.47375,-1.725 -4.7275,0 -8.69375,3.3925 -9.42625,8.065 -0.0288,0.18 -0.13125,0.3375 -0.28125,0.4375 -0.14875,0.1 -0.33375,0.1325 -0.51125,0.0888 -0.5375,-0.13375 -1.06875,-0.20125 -1.58375,-0.20125 -3.62,0 -6.56625,2.94625 -6.56625,6.56625 0,3.37625 2.53,6.18375 5.88375,6.53 0.35375,0.0375 0.61125,0.355 0.575,0.70875 -0.035,0.33125 -0.315,0.57875 -0.64125,0.57875 -0.0212,0 -0.045,-0.001 -0.0662,-0.004 -4.01375,-0.415 -7.04,-3.77375 -7.04,-7.81375 0,-4.33125 3.52375,-7.855 7.855,-7.855"
       inkscape:connector-curvature="0" />
    <path
       id="path3162"
       style="fill:#357491;fill-opacity:1;fill-rule:nonzero;stroke:none"
       d="m 491.40799,885.94732 c -0.36681,8.8e-4 -0.66291,0.29698 -0.66379,0.66379 v 1.02177 h -1.02177 c -0.36593,0 -0.66292,0.29699 -0.6638,0.6638 8.8e-4,0.36681 0.29787,0.66379 0.6638,0.66379 h 1.02177 l -8.9e-4,1.02089 c 0,0.36593 0.29699,0.66291 0.6638,0.6638 0.18385,0 0.3509,-0.0751 0.47022,-0.19446 0.12021,-0.12021 0.19446,-0.28638 0.19357,-0.46934 l 8.9e-4,-1.02089 1.02088,-8.8e-4 c 0.18385,0 0.34914,-0.0734 0.46935,-0.19357 0.1202,-0.12021 0.19445,-0.28638 0.19445,-0.47023 -8.8e-4,-0.36681 -0.29787,-0.66379 -0.6638,-0.66379 l -1.02088,8.8e-4 v -1.02177 c 0,-0.36593 -0.29699,-0.66291 -0.6638,-0.66379"
       inkscape:connector-curvature="0" />
    <path
       inkscape:connector-curvature="0"
       d="m 503.40799,885.94732 c -0.36681,8.8e-4 -0.66291,0.29698 -0.66379,0.66379 v 1.02177 h -1.02177 c -0.36593,0 -0.66292,0.29699 -0.6638,0.6638 8.8e-4,0.36681 0.29787,0.66379 0.6638,0.66379 h 1.02177 l -8.9e-4,1.02089 c 0,0.36593 0.29699,0.66291 0.6638,0.6638 0.18385,0 0.3509,-0.0751 0.47022,-0.19446 0.12021,-0.12021 0.19446,-0.28638 0.19357,-0.46934 l 8.9e-4,-1.02089 1.02088,-8.8e-4 c 0.18385,0 0.34914,-0.0734 0.46935,-0.19357 0.1202,-0.12021 0.19445,-0.28638 0.19445,-0.47023 -8.8e-4,-0.36681 -0.29787,-0.66379 -0.6638,-0.66379 l -1.02088,8.8e-4 v -1.02177 c 0,-0.36593 -0.29699,-0.66291 -0.6638,-0.66379"
       style="fill:#357491;fill-opacity:1;fill-rule:nonzero;stroke:none"
       id="path3164" />
    <path
       id="path3166"
       style="fill:#357491;fill-opacity:1;fill-rule:nonzero;stroke:none"
       d="m 515.40799,885.94732 c -0.36681,8.8e-4 -0.66291,0.29698 -0.66379,0.66379 v 1.02177 h -1.02177 c -0.36593,0 -0.66292,0.29699 -0.6638,0.6638 8.8e-4,0.36681 0.29787,0.66379 0.6638,0.66379 h 1.02177 l -8.9e-4,1.02089 c 0,0.36593 0.29699,0.66291 0.6638,0.6638 0.18385,0 0.3509,-0.0751 0.47022,-0.19446 0.12021,-0.12021 0.19446,-0.28638 0.19357,-0.46934 l 8.9e-4,-1.02089 1.02088,-8.8e-4 c 0.18385,0 0.34914,-0.0734 0.46935,-0.19357 0.1202,-0.12021 0.19445,-0.28638 0.19445,-0.47023 -8.8e-4,-0.36681 -0.29787,-0.66379 -0.6638,-0.66379 l -1.02088,8.8e-4 v -1.02177 c 0,-0.36593 -0.29699,-0.66291 -0.6638,-0.66379"
       inkscape:connector-curvature="0" />
    <path
       inkscape:connector-curvature="0"
       d="m 485.40799,893.94732 c -0.36681,8.8e-4 -0.66291,0.29698 -0.66379,0.66379 v 1.02177 h -1.02177 c -0.36593,0 -0.66292,0.29699 -0.6638,0.6638 8.8e-4,0.36681 0.29787,0.66379 0.6638,0.66379 h 1.02177 l -8.9e-4,1.02089 c 0,0.36593 0.29699,0.66291 0.6638,0.6638 0.18385,0 0.3509,-0.0751 0.47022,-0.19446 0.12021,-0.12021 0.19446,-0.28638 0.19357,-0.46934 l 8.9e-4,-1.02089 1.02088,-8.8e-4 c 0.18385,0 0.34914,-0.0734 0.46935,-0.19357 0.1202,-0.12021 0.19445,-0.28638 0.19445,-0.47023 -8.8e-4,-0.36681 -0.29787,-0.66379 -0.6638,-0.66379 l -1.02088,8.8e-4 v -1.02177 c 0,-0.36593 -0.29699,-0.66291 -0.6638,-0.66379"
       style="fill:#357491;fill-opacity:1;fill-rule:nonzero;stroke:none"
       id="path3168" />
    <path
       id="path3170"
       style="fill:#357491;fill-opacity:1;fill-rule:nonzero;stroke:none"
       d="m 497.40799,893.94732 c -0.36681,8.8e-4 -0.66291,0.29698 -0.66379,0.66379 v 1.02177 h -1.02177 c -0.36593,0 -0.66292,0.29699 -0.6638,0.6638 8.8e-4,0.36681 0.29787,0.66379 0.6638,0.66379 h 1.02177 l -8.9e-4,1.02089 c 0,0.36593 0.29699,0.66291 0.6638,0.6638 0.18385,0 0.3509,-0.0751 0.47022,-0.19446 0.12021,-0.12021 0.19446,-0.28638 0.19357,-0.46934 l 8.9e-4,-1.02089 1.02088,-8.8e-4 c 0.18385,0 0.34914,-0.0734 0.46935,-0.19357 0.1202,-0.12021 0.19445,-0.28638 0.19445,-0.47023 -8.8e-4,-0.36681 -0.29787,-0.66379 -0.6638,-0.66379 l -1.02088,8.8e-4 v -1.02177 c 0,-0.36593 -0.29699,-0.66291 -0.6638,-0.66379"
       inkscape:connector-curvature="0" />
    <path
       inkscape:connector-curvature="0"
       d="m 509.40799,893.94732 c -0.36681,8.8e-4 -0.66291,0.29698 -0.66379,0.66379 v 1.02177 h -1.02177 c -0.36593,0 -0.66292,0.29699 -0.6638,0.6638 8.8e-4,0.36681 0.29787,0.66379 0.6638,0.66379 h 1.02177 l -8.9e-4,1.02089 c 0,0.36593 0.29699,0.66291 0.6638,0.6638 0.18385,0 0.3509,-0.0751 0.47022,-0.19446 0.12021,-0.12021 0.19446,-0.28638 0.19357,-0.46934 l 8.9e-4,-1.02089 1.02088,-8.8e-4 c 0.18385,0 0.34914,-0.0734 0.46935,-0.19357 0.1202,-0.12021 0.19445,-0.28638 0.19445,-0.47023 -8.8e-4,-0.36681 -0.29787,-0.66379 -0.6638,-0.66379 l -1.02088,8.8e-4 v -1.02177 c 0,-0.36593 -0.29699,-0.66291 -0.6638,-0.66379"
       style="fill:#357491;fill-opacity:1;fill-rule:nonzero;stroke:none"
       id="path3172" />
  </g>
</svg>
